<svg width="101" height="100" viewBox="0 0 101 100" fill="none" xmlns="http://www.w3.org/2000/svg">
<path d="M50.5293 75H50.571M46.3626 25H54.696M38.8626 87.5H62.196C66.863 87.5 69.1968 87.5 70.9793 86.5917C72.5472 85.7929 73.8222 84.5179 74.621 82.95C75.5293 81.1675 75.5293 78.8337 75.5293 74.1667V25.8333C75.5293 21.1662 75.5293 18.8327 74.621 17.0501C73.8222 15.482 72.5472 14.2072 70.9793 13.4083C69.1968 12.5 66.863 12.5 62.196 12.5H38.8626C34.1955 12.5 31.862 12.5 30.0794 13.4083C28.5113 14.2072 27.2365 15.482 26.4376 17.0501C25.5293 18.8327 25.5293 21.1662 25.5293 25.8333V74.1667C25.5293 78.8337 25.5293 81.1675 26.4376 82.95C27.2365 84.5179 28.5113 85.7929 30.0794 86.5917C31.862 87.5 34.1955 87.5 38.8626 87.5Z" stroke="#5075B5" stroke-width="5" stroke-linecap="round" stroke-linejoin="round"/>
</svg>
