<svg width="100" height="100" viewBox="0 0 100 100" fill="none" xmlns="http://www.w3.org/2000/svg">
<path d="M12.5 37.5H87.5M29.1667 12.5V20.8333M70.8333 12.5V20.8333M25 54.1667H33.3333M25 70.8333H33.3333M45.8333 54.1667H54.1667M45.8333 70.8333H54.1667M66.6667 54.1667H75M66.6667 70.8333H75M25.8333 87.5H74.1667C78.8337 87.5 81.1675 87.5 82.95 86.5917C84.5179 85.7929 85.7929 84.5179 86.5917 82.95C87.5 81.1675 87.5 78.8337 87.5 74.1667V34.1667C87.5 29.4995 87.5 27.166 86.5917 25.3834C85.7929 23.8154 84.5179 22.5405 82.95 21.7416C81.1675 20.8333 78.8337 20.8333 74.1667 20.8333H25.8333C21.1662 20.8333 18.8327 20.8333 17.0501 21.7416C15.482 22.5405 14.2072 23.8154 13.4083 25.3834C12.5 27.166 12.5 29.4995 12.5 34.1667V74.1667C12.5 78.8337 12.5 81.1675 13.4083 82.95C14.2072 84.5179 15.482 85.7929 17.0501 86.5917C18.8327 87.5 21.1662 87.5 25.8333 87.5Z" stroke="#DCE6F7" stroke-width="5" stroke-linecap="round" stroke-linejoin="round"/>
</svg>
