<svg width="101" height="101" viewBox="0 0 101 101" fill="none" xmlns="http://www.w3.org/2000/svg">
<path d="M25.4748 17.1725H25.5164M13.6869 42.1725C15.4028 37.3176 20.033 33.8392 25.4756 33.8392C30.9182 33.8392 35.5483 37.3176 37.2643 42.1725M25.4748 63.0059H25.5164M13.6869 88.0059C15.4028 83.1509 20.033 79.6725 25.4756 79.6725C30.9182 79.6725 35.5483 83.1509 37.2643 88.0059M57.1415 35.9225H81.3082C83.6415 35.9225 84.8086 35.9225 85.6999 35.4684C86.4836 35.0689 87.1211 34.4315 87.5207 33.6475C87.9749 32.7562 87.9749 31.5894 87.9749 29.2559V25.9225C87.9749 23.589 87.9749 22.4222 87.5207 21.5309C87.1211 20.7469 86.4836 20.1095 85.6999 19.71C84.8086 19.2559 83.6415 19.2559 81.3082 19.2559H57.1415C54.8078 19.2559 53.6411 19.2559 52.7499 19.71C51.9657 20.1095 51.3282 20.7469 50.929 21.5309C50.4749 22.4222 50.4749 23.589 50.4749 25.9225V29.2559C50.4749 31.5894 50.4749 32.7562 50.929 33.6475C51.3282 34.4315 51.9657 35.0689 52.7499 35.4684C53.6411 35.9225 54.8078 35.9225 57.1415 35.9225ZM57.1415 81.7559H81.3082C83.6415 81.7559 84.8086 81.7559 85.6999 81.3017C86.4836 80.9021 87.1211 80.265 87.5207 79.4809C87.9749 78.5896 87.9749 77.4229 87.9749 75.0892V71.7559C87.9749 69.4221 87.9749 68.2554 87.5207 67.3642C87.1211 66.58 86.4836 65.9429 85.6999 65.5434C84.8086 65.0892 83.6415 65.0892 81.3082 65.0892H57.1415C54.8078 65.0892 53.6411 65.0892 52.7499 65.5434C51.9657 65.9429 51.3282 66.58 50.929 67.3642C50.4749 68.2554 50.4749 69.4221 50.4749 71.7559V75.0892C50.4749 77.4229 50.4749 78.5896 50.929 79.4809C51.3282 80.265 51.9657 80.9021 52.7499 81.3017C53.6411 81.7559 54.8078 81.7559 57.1415 81.7559ZM29.6414 17.1725C29.6414 19.4737 27.7759 21.3392 25.4748 21.3392C23.1736 21.3392 21.3081 19.4737 21.3081 17.1725C21.3081 14.8714 23.1736 13.0059 25.4748 13.0059C27.7759 13.0059 29.6414 14.8714 29.6414 17.1725ZM29.6414 63.0059C29.6414 65.3071 27.7759 67.1725 25.4748 67.1725C23.1736 67.1725 21.3081 65.3071 21.3081 63.0059C21.3081 60.7046 23.1736 58.8392 25.4748 58.8392C27.7759 58.8392 29.6414 60.7046 29.6414 63.0059Z" stroke="white" stroke-width="5" stroke-linecap="round" stroke-linejoin="round"/>
</svg>
