<svg width="101" height="101" viewBox="0 0 101 101" fill="none" xmlns="http://www.w3.org/2000/svg">
<path d="M6.98285 46.4671C7.28985 41.4302 7.44335 38.9119 8.74848 36.4896C9.94093 34.2764 12.2225 32.1297 14.5041 31.0741C17.0013 29.9187 19.8636 29.9187 25.5882 29.9187C27.7219 29.9187 28.7887 29.9187 29.8221 29.7442C30.8436 29.5717 31.8398 29.2729 32.7877 28.8545C33.7465 28.4314 34.6371 27.8441 36.4184 26.6697L37.3306 26.0682C47.9262 19.082 53.2241 15.5889 57.6716 17.1066C58.5241 17.3975 59.3496 17.8176 60.0866 18.3356C63.9312 21.0375 64.2233 27.3237 64.8075 39.8963C65.0237 44.5517 65.1712 48.5359 65.1712 50.7521C65.1712 52.9684 65.0237 56.9525 64.8075 61.6079C64.2233 74.1804 63.9312 80.4667 60.0866 83.1683C59.3496 83.6867 58.5241 84.1067 57.6716 84.3975C53.2241 85.915 47.9262 82.4221 37.3306 75.4359L36.4184 74.8346C34.6371 73.66 33.7465 73.0725 32.7877 72.6496C31.8398 72.2313 30.8436 71.9325 29.8221 71.76C28.7887 71.5854 27.7219 71.5854 25.5882 71.5854C19.8636 71.5854 17.0013 71.5854 14.5041 70.43C12.2225 69.3746 9.94093 67.2275 8.74848 65.0146C7.44335 62.5921 7.28985 60.0738 6.98285 55.0371C6.89202 53.5471 6.83789 52.0954 6.83789 50.7521C6.83789 49.4088 6.89202 47.9571 6.98285 46.4671Z" stroke="#2B4168" stroke-width="5"/>
<path d="M83.9212 25.7529C83.9212 25.7529 90.1712 33.2529 90.1712 50.7529C90.1712 68.2529 83.9212 75.7529 83.9212 75.7529" stroke="#2B4168" stroke-width="5" stroke-linecap="round"/>
<path d="M75.5879 38.2529C75.5879 38.2529 77.6712 42.0029 77.6712 50.7529C77.6712 59.5029 75.5879 63.2529 75.5879 63.2529" stroke="#2B4168" stroke-width="5" stroke-linecap="round"/>
</svg>
